<svg viewBox="38.2577 330.4305 200.6999 77.157" width="300" height="77" xmlns="http://www.w3.org/2000/svg" fill="#d7d7d7">
	<title>Fractl UI</title>
  <defs></defs>
  <path d="M 128.734 357.87 L 127.127 359.679 C 126.119 360.952 125.215 361.973 124.411 362.741 C 123.608 363.513 122.804 363.898 121.997 363.898 C 121.261 363.898 120.506 363.681 119.738 363.244 C 118.963 362.809 117.907 362.09 116.568 361.085 C 115.428 360.213 114.423 359.526 113.551 359.024 C 112.68 358.522 111.843 358.272 111.036 358.272 C 109.964 358.272 108.742 359.108 107.368 360.784 C 105.994 362.459 104.671 364.469 103.395 366.812 L 97.765 357.87 C 98.527 358.603 94.213 355.475 95.351 354.503 C 96.488 353.534 97.496 353.048 98.368 353.048 C 98.971 353.048 99.506 353.249 99.976 353.651 C 100.445 354.053 100.967 355.025 101.538 356.564 C 102.105 358.104 102.691 360.482 103.294 363.697 C 104.905 361.218 106.746 358.807 108.826 356.464 C 110.904 354.121 112.213 352.948 112.748 352.948 C 113.752 352.948 115.632 353.92 118.377 355.861 C 121.326 358.003 123.475 359.076 124.813 359.076 C 125.348 359.076 125.902 358.943 126.476 358.674 C 127.043 358.405 127.48 358.156 127.782 357.919 C 128.083 357.686 128.3 357.537 128.433 357.468 L 128.734 357.87 Z M 155.818 367.214 C 155.818 367.214 136.681 381.11 143.049 376.758 L 149.686 372.237 C 149.686 369.09 149.502 366.458 149.132 364.349 C 148.766 362.239 147.891 360.499 146.517 359.125 C 145.146 357.754 143.117 357.067 140.434 357.067 C 136.412 357.067 133.343 358.541 131.233 361.487 C 129.12 364.433 128.2 368.251 128.469 372.94 L 121.028 377.059 L 120.726 376.858 C 122.603 371.566 124.933 367.097 127.714 363.445 C 130.497 359.795 133.226 357.083 135.91 355.307 C 138.593 353.534 140.768 352.646 142.446 352.646 C 147.34 352.646 150.824 354.101 152.904 357.015 C 154.982 359.928 155.954 363.328 155.818 367.214 Z"></path>
  <path d="M 86.397 362.42 L 84.977 362.806 L 83.366 353.939 C 82.028 349.049 81.04 345.802 80.401 344.194 C 79.766 342.587 78.978 341.566 78.042 341.128 C 77.105 340.694 75.43 340.477 73.019 340.477 L 53.026 340.477 L 53.026 372.324 L 67.794 372.324 C 69.47 372.324 70.74 372.091 71.612 371.621 C 72.484 371.151 73.135 370.448 73.569 369.511 C 74.007 368.575 74.558 367.068 75.229 364.99 C 75.699 363.315 76.233 361.675 76.836 360.068 L 77.439 360.068 L 77.439 386.389 L 76.836 386.389 C 76.366 385.051 75.832 383.444 75.229 381.567 C 74.558 379.425 74.007 377.882 73.569 376.946 C 73.135 376.009 72.484 375.306 71.612 374.836 C 70.74 374.366 69.47 374.133 67.794 374.133 L 53.026 374.133 L 53.026 402.866 L 61.766 405.88 L 61.766 406.482 L 38.258 406.482 L 38.258 405.88 L 46.998 402.866 L 47.099 342.587 L 38.76 339.271 L 38.76 338.669 L 86.432 338.669 L 86.397 362.42 Z M 103.278 363.684 C 104.885 361.205 104.652 364.456 103.378 366.799 L 103.378 403.468 L 112.42 405.88 L 112.42 406.482 L 88.711 406.482 L 88.711 405.88 L 97.752 403.468 L 97.752 357.857 C 98.514 358.59 88.717 363.477 84.977 362.829 L 86.397 356.691 C 86.529 359.731 86.708 360.706 89.848 358.645 C 92.946 356.61 94.204 355.462 95.341 354.49 C 96.479 353.521 97.483 353.035 98.355 353.035 C 98.958 353.035 99.493 353.236 99.963 353.638 C 100.433 354.04 100.951 355.012 101.521 356.551 C 102.089 358.091 102.675 360.469 103.278 363.684 Z M 167.443 394.213 L 168.081 395.133 C 166.406 396.079 168.616 395.237 162.287 401.057 C 160.089 403.076 158.602 404.758 157.464 405.727 C 156.327 406.7 155.322 407.186 154.45 407.186 C 153.847 407.186 153.293 406.969 152.791 406.531 C 152.289 406.097 151.754 405.06 151.184 403.417 C 150.616 401.777 150.03 399.281 149.427 395.934 C 146.413 400.153 143.649 403.151 141.137 404.924 C 138.625 406.7 135.696 407.588 132.348 407.588 C 129.133 407.588 126.69 406.852 125.014 405.377 C 123.339 403.903 122.502 401.961 122.502 399.55 C 122.502 395.934 124.327 392.317 127.976 388.7 C 131.629 385.083 136.636 381.097 142.997 376.745 L 149.628 372.224 C 149.628 369.077 155.889 363.315 155.756 367.201 L 155.053 395.733 L 155.053 402.363 L 167.443 394.213 Z M 135.462 403.87 C 137.54 403.87 139.766 403.015 142.142 401.307 C 144.52 399.599 146.948 397.039 149.427 393.623 L 149.628 374.635 C 142.595 378.987 137.455 382.922 134.205 386.438 C 130.958 389.954 129.334 393.454 129.334 396.938 C 129.334 399.08 129.904 400.772 131.042 402.01 C 132.179 403.251 133.654 403.87 135.462 403.87 Z M 183.034 407.487 C 178.883 407.487 175.149 406.531 171.834 404.622 C 168.519 402.713 165.887 399.852 163.946 396.034 C 162.005 392.216 161.032 387.563 161.032 382.069 C 161.032 375.439 162.355 369.929 165.002 365.541 C 167.647 361.157 170.628 357.942 173.944 355.897 C 177.259 353.855 179.887 352.834 181.829 352.834 C 185.176 352.834 187.989 353.521 190.268 354.892 C 192.546 356.266 194.218 357.925 195.291 359.867 C 196.364 361.808 196.898 363.684 196.898 365.493 L 190.569 372.224 L 190.268 372.023 C 190.601 370.548 190.77 369.31 190.77 368.306 C 190.77 365.023 189.749 362.346 187.707 360.269 C 185.662 358.191 183.135 357.154 180.121 357.154 C 176.303 357.154 172.971 358.577 170.126 361.422 C 167.277 364.271 165.855 369.443 165.855 376.946 C 165.855 385.116 167.715 391.513 171.432 396.135 C 175.149 400.756 180.153 403.067 186.45 403.067 C 188.19 403.067 189.681 402.814 190.922 402.312 C 192.16 401.809 193.298 401.226 194.338 400.555 C 195.375 399.884 196.095 399.45 196.496 399.249 L 196.898 399.952 C 190.268 404.975 185.646 407.487 183.034 407.487 Z M 224.166 406.45 C 222.215 406.46 213.025 406.444 212.088 406.444 C 209.544 406.444 207.279 406.599 205.804 404.823 C 204.329 403.05 203.594 400.487 203.594 397.139 L 203.594 355.949 L 195.155 354.643 L 195.155 354.04 L 203.694 354.04 L 209.019 343.189 L 209.421 343.189 L 209.22 354.04 L 223.084 354.04 L 223.084 357.355 C 222.481 357.355 220.906 357.187 218.362 356.853 L 209.22 355.949 L 209.22 397.139 C 209.22 399.281 209.239 399.249 210.675 401.91 C 212.111 404.57 223.301 405.183 224.024 405.173 C 224.024 405.173 227.605 406.33 224.166 406.45 Z M 238.957 403.468 C 238.957 403.468 239.006 406.414 235.367 406.414 C 233.831 406.414 224.254 406.456 224.254 406.456 L 224.085 405.163 C 224.085 405.163 231.121 405.666 233.331 403.468 C 234.388 402.418 233.331 334.248 233.331 334.248 L 223.285 334.349 L 223.285 333.746 L 238.355 330.43 L 238.957 330.43 L 238.957 403.468 Z" ></path>
</svg>