<svg width="519" height="133" viewBox="0 0 519 133" fill="none" xmlns="http://www.w3.org/2000/svg">
<path d="M246.505 52.301L244.456 54.6069C243.171 56.2296 242.019 57.5311 240.994 58.5101C239.97 59.4942 238.946 59.985 237.917 59.985C236.979 59.985 236.016 59.7083 235.037 59.1513C234.049 58.5968 232.703 57.6803 230.996 56.3992C229.543 55.2876 228.262 54.4119 227.151 53.772C226.04 53.1321 224.973 52.8134 223.945 52.8134C222.578 52.8134 221.021 53.8791 219.269 56.0155C217.518 58.1506 215.831 60.7128 214.205 63.6995L207.028 52.301C207.999 53.2353 202.5 49.248 203.951 48.009C205.4 46.7738 206.685 46.1543 207.797 46.1543C208.565 46.1543 209.247 46.4105 209.846 46.9229C210.444 47.4354 211.11 48.6744 211.838 50.6362C212.56 52.5992 213.307 55.6305 214.076 59.7287C216.129 56.5687 218.476 53.4954 221.128 50.5087C223.776 47.522 225.445 46.0268 226.127 46.0268C227.407 46.0268 229.803 47.2658 233.302 49.7401C237.062 52.4705 239.801 53.8383 241.507 53.8383C242.188 53.8383 242.895 53.6688 243.626 53.3259C244.349 52.983 244.906 52.6655 245.291 52.3634C245.675 52.0664 245.951 51.8765 246.121 51.7885L246.505 52.301ZM281.029 64.2119C281.029 64.2119 256.635 81.9254 264.752 76.3778L273.213 70.6148C273.213 66.6033 272.978 63.2482 272.506 60.5598C272.04 57.8702 270.924 55.6522 269.173 53.9007C267.425 52.1531 264.839 51.2774 261.419 51.2774C256.292 51.2774 252.38 53.1563 249.69 56.9116C246.997 60.6669 245.824 65.5338 246.167 71.5109L236.682 76.7615L236.297 76.5053C238.689 69.7595 241.659 64.0628 245.204 59.4075C248.752 54.7548 252.231 51.2978 255.652 49.0339C259.072 46.7738 261.845 45.6418 263.984 45.6418C270.222 45.6418 274.663 47.4966 277.315 51.2111C279.963 54.9244 281.202 59.2584 281.029 64.2119Z"/>
<path d="M192.537 58.1009L190.727 58.593L188.673 47.2901C186.968 41.0567 185.708 36.9177 184.894 34.868C184.084 32.8195 183.08 31.518 181.887 30.9597C180.692 30.4064 178.557 30.1298 175.484 30.1298H149.998V70.7257H168.823C170.96 70.7257 172.579 70.4287 173.69 69.8296C174.802 69.2305 175.632 68.3343 176.185 67.1399C176.743 65.9468 177.446 64.0258 178.301 61.3769C178.9 59.2418 179.581 57.1513 180.349 55.1028H181.118V88.6546H180.349C179.75 86.949 179.07 84.9005 178.301 82.5079C177.446 79.7775 176.743 77.8106 176.185 76.6175C175.632 75.4231 174.802 74.5269 173.69 73.9278C172.579 73.3287 170.96 73.0317 168.823 73.0317H149.998V109.658L161.139 113.5V114.267H131.173V113.5L142.314 109.658L142.443 32.8195L131.813 28.5925V27.8252H192.582L192.537 58.1009ZM214.055 59.7122C216.104 56.5521 215.807 60.6963 214.183 63.6829V110.425L225.709 113.5V114.267H195.487V113.5L207.011 110.425V52.2844C207.983 53.2188 195.494 59.4483 190.727 58.6223L192.537 50.7981C192.705 54.6732 192.933 55.916 196.936 53.2889C200.885 50.6948 202.489 49.2314 203.938 47.9924C205.389 46.7572 206.669 46.1377 207.78 46.1377C208.549 46.1377 209.231 46.3939 209.83 46.9064C210.429 47.4188 211.089 48.6578 211.816 50.6196C212.54 52.5827 213.287 55.6139 214.055 59.7122ZM295.848 98.628L296.661 99.8007C294.526 101.007 297.343 99.9333 289.275 107.352C286.473 109.926 284.578 112.07 283.127 113.305C281.678 114.545 280.397 115.165 279.285 115.165C278.517 115.165 277.81 114.888 277.17 114.33C276.531 113.777 275.849 112.455 275.122 110.36C274.398 108.27 273.651 105.088 272.882 100.822C269.04 106.2 265.517 110.021 262.315 112.281C259.113 114.545 255.379 115.677 251.111 115.677C247.013 115.677 243.899 114.739 241.763 112.859C239.628 110.98 238.561 108.504 238.561 105.431C238.561 100.822 240.887 96.2111 245.538 91.6005C250.195 86.9898 256.577 81.9088 264.686 76.3612L273.139 70.5982C273.139 66.5867 281.12 59.2418 280.95 64.1953L280.054 100.566V109.017L295.848 98.628ZM255.081 110.938C257.73 110.938 260.567 109.848 263.596 107.671C266.627 105.494 269.722 102.23 272.882 97.8759L273.139 73.6716C264.173 79.2192 257.621 84.2351 253.479 88.717C249.34 93.1989 247.269 97.6604 247.269 102.102C247.269 104.832 247.996 106.989 249.447 108.567C250.896 110.149 252.776 110.938 255.081 110.938ZM315.722 115.549C310.43 115.549 305.671 114.33 301.445 111.896C297.219 109.463 293.864 105.816 291.39 100.949C288.916 96.0824 287.675 90.1511 287.675 83.1478C287.675 74.6965 289.362 67.6727 292.736 62.0793C296.108 56.4909 299.908 52.3928 304.135 49.786C308.36 47.183 311.71 45.8815 314.186 45.8815C318.452 45.8815 322.038 46.7572 324.943 48.5049C327.847 50.2563 329.978 52.3711 331.346 54.8466C332.714 57.3208 333.394 59.7122 333.394 62.0181L325.327 70.5982L324.943 70.342C325.368 68.4618 325.583 66.8837 325.583 65.6039C325.583 61.419 324.281 58.0066 321.678 55.359C319.072 52.7102 315.85 51.3883 312.008 51.3883C307.142 51.3883 302.894 53.2022 299.268 56.8288C295.636 60.4604 293.823 67.0533 293.823 76.6175C293.823 87.0319 296.194 95.1862 300.932 101.078C305.671 106.968 312.049 109.914 320.076 109.914C322.294 109.914 324.195 109.592 325.777 108.952C327.355 108.311 328.805 107.568 330.131 106.712C331.453 105.857 332.371 105.304 332.882 105.047L333.394 105.944C324.943 112.346 319.051 115.549 315.722 115.549ZM368.153 114.227C365.666 114.239 353.952 114.219 352.757 114.219C349.514 114.219 346.627 114.417 344.747 112.153C342.867 109.893 341.93 106.626 341.93 102.358V49.8522L331.173 48.1875V47.4188H342.057L348.845 33.5869H349.358L349.101 47.4188H366.774V51.6445C366.005 51.6445 363.998 51.4303 360.755 51.0046L349.101 49.8522V102.358C349.101 105.088 349.126 105.047 350.956 108.439C352.787 111.83 367.051 112.612 367.972 112.599C367.972 112.599 372.537 114.074 368.153 114.227ZM387.008 110.425C387.008 110.425 387.07 114.181 382.431 114.181C380.473 114.181 368.266 114.234 368.266 114.234L368.05 112.586C368.05 112.586 377.019 113.227 379.836 110.425C381.183 109.087 379.836 22.1896 379.836 22.1896L367.03 22.3184V21.5497L386.24 17.3228H387.008V110.425Z"/>

<style>path{fill:currentcolor}@media (prefers-color-scheme:dark){path{fill:#F3F3F3}}</style>
</svg>